PathFileType	4	(X/Y/Z)	SUBJ51_0_static_RCNL2025.trc
DataRate	CameraRate	NumFrames	NumMarkers	Units	OrigDataRate	OrigDataStartFrame	OrigNumFrames
100	100	12	25	mm	100	78	93
Frame#	Time	R_Shoulder			L_Shoulder			C7			J_Notch			R_Elbow			L_Elbow			R_Wrist			L_Wrist			R_Asis			L_Asis			Sacral			Thoracic			Sternum			R_Thigh_Lateral			R_Knee_Lateral			R_Shank_Lateral			R_Ankle_Lateral			R_Heel			R_Toe			L_Thigh_Lateral			L_Knee_Lateral			L_Shank_Lateral			L_Ankle_Lateral			L_Heel			L_Toe		
		X1	Y1	Z1	X2	Y2	Z2	X3	Y3	Z3	X4	Y4	Z4	X5	Y5	Z5	X6	Y6	Z6	X7	Y7	Z7	X8	Y8	Z8	X9	Y9	Z9	X10	Y10	Z10	X11	Y11	Z11	X12	Y12	Z12	X13	Y13	Z13	X14	Y14	Z14	X15	Y15	Z15	X16	Y16	Z16	X17	Y17	Z17	X18	Y18	Z18	X19	Y19	Z19	X20	Y20	Z20	X21	Y21	Z21	X22	Y22	Z22	X23	Y23	Z23	X24	Y24	Z24	X25	Y25	Z25
78	0.77000000	-201.511322	1506.367554	-35.640121	-216.695938	1515.130493	-482.292542	-297.726715	1611.027222	-268.601074	-145.635284	1507.947632	-267.396759	-246.111053	1234.007568	109.237862	-244.990204	1233.719604	-632.753235	-177.272263	973.508911	114.658566	-200.376930	978.661591	-661.370605	-134.524490	1052.871216	-129.083572	-137.146881	1034.608154	-369.465851	-352.687775	1084.501953	-254.093735	-381.860596	1392.404663	-261.564514	-87.031532	1277.333984	-269.532318	-208.139969	652.793518	-41.223904	-241.154083	529.500671	-88.631775	-293.956482	320.574615	-18.020485	-332.076050	81.619751	-128.670654	-383.211426	74.129608	-184.832275	-174.965866	48.143337	-150.678741	-237.872070	647.012268	-468.719757	-264.558533	529.354675	-420.315613	-311.819977	343.745697	-460.339569	-331.659149	74.242729	-354.049133	-379.083130	81.155502	-294.935394	-173.464432	45.566257	-342.788666
79	0.78000000	-201.509293	1506.360962	-35.664604	-216.716705	1515.072021	-482.299591	-297.711304	1610.999878	-268.607910	-145.640976	1507.922241	-267.384521	-246.071182	1233.940918	109.106339	-245.059128	1233.666992	-632.676697	-177.104950	973.532593	114.664925	-200.361938	978.632263	-661.296753	-134.393982	1052.854614	-129.029465	-137.117401	1034.551147	-369.279419	-352.655701	1084.554199	-253.978302	-381.792450	1392.426514	-261.488586	-87.032394	1277.256836	-269.512054	-208.130920	652.781799	-41.209122	-241.106934	529.514709	-88.541695	-293.899414	320.595306	-18.028883	-332.153931	81.732689	-128.591446	-383.170471	74.147789	-184.741760	-174.966568	48.142464	-150.679916	-237.864548	646.998657	-468.651581	-264.558716	529.381714	-420.235016	-311.817383	343.712402	-460.365295	-331.653809	74.192780	-354.057922	-379.105499	81.210014	-294.901764	-173.440506	45.587589	-342.737335
80	0.79000000	-201.503235	1506.349609	-35.671284	-216.782394	1514.956787	-482.234558	-297.644562	1610.999634	-268.562622	-145.789062	1507.799561	-267.126526	-246.051224	1233.896484	109.087952	-245.095856	1233.534058	-632.615906	-176.942696	973.535126	114.640736	-200.409790	978.515961	-661.249817	-134.282562	1052.853149	-128.943222	-137.111679	1034.616211	-369.219330	-352.594421	1084.532593	-253.897476	-381.733704	1392.399048	-261.412994	-87.067223	1277.200928	-269.525726	-208.035431	652.759094	-41.155220	-241.111725	529.465820	-88.559982	-293.780060	320.572540	-18.000784	-332.184479	81.746170	-128.565994	-383.130981	74.079285	-184.770432	-174.976624	48.158569	-150.673447	-237.782013	646.994751	-468.565735	-264.537567	529.371399	-420.213501	-311.741272	343.734283	-460.277283	-331.631958	74.250984	-354.066772	-379.193848	81.317108	-294.799500	-173.425751	45.574608	-342.740112
81	0.80000000	-201.391449	1506.355835	-35.616364	-216.820602	1514.926636	-482.353210	-297.657806	1610.984985	-268.541168	-145.695374	1507.897461	-267.330048	-245.954651	1233.888672	109.133247	-245.094421	1233.447632	-632.572388	-176.756126	973.487732	114.593903	-200.397484	978.444000	-661.103546	-134.251343	1052.818848	-128.827087	-137.022644	1034.551636	-369.221436	-352.549683	1084.460083	-253.779297	-381.686768	1392.398926	-261.323639	-87.093697	1277.128174	-269.477203	-207.911621	652.716492	-41.088703	-240.979248	529.433960	-88.533653	-293.768524	320.560913	-17.995777	-332.228271	81.155289	-128.743469	-383.180725	74.200691	-184.711670	-174.878769	48.225246	-150.744003	-237.671875	647.059814	-468.535706	-264.466583	529.327393	-420.189148	-311.731079	343.724304	-460.258820	-331.641418	74.254951	-354.045380	-379.136353	81.281593	-294.860626	-173.442871	45.577621	-342.721008
82	0.81000000	-201.304489	1506.329712	-35.686901	-216.893875	1514.755005	-482.232086	-297.639801	1610.998291	-268.544769	-145.657211	1507.854492	-267.414551	-245.879791	1233.775513	109.097435	-245.177353	1233.356934	-632.530090	-176.578102	973.493195	114.589252	-200.452354	978.355255	-661.056610	-134.173798	1052.772827	-128.734451	-137.008148	1034.546753	-369.227509	-352.485565	1084.448486	-253.709686	-381.672546	1392.410156	-261.333435	-87.166405	1277.126953	-269.383728	-207.930420	652.731018	-41.094055	-240.891800	529.465637	-88.455635	-293.845703	320.585083	-17.932684	-332.126282	81.617348	-128.642090	-383.175293	74.179077	-184.732040	-174.870148	48.233124	-150.740326	-237.640976	647.027588	-468.498535	-264.404999	529.294006	-420.104248	-311.696777	343.735016	-460.217743	-331.635345	74.259682	-354.054443	-379.158722	81.289337	-294.827148	-173.488907	45.582054	-342.763916
83	0.82000000	-201.381424	1506.358643	-35.609783	-217.022354	1514.725586	-482.280090	-297.650513	1611.007812	-268.533020	-145.685043	1507.785522	-267.378998	-245.856903	1233.760742	109.084946	-245.297043	1233.300049	-632.503235	-176.463066	973.426636	114.566402	-200.520058	978.313049	-660.979095	-134.149033	1052.734863	-128.631912	-136.967163	1034.560059	-369.038391	-352.343353	1084.428589	-253.671707	-381.612549	1392.403809	-261.258301	-87.089325	1277.075439	-269.301331	-207.799454	652.705505	-41.029640	-240.834366	529.410095	-88.478668	-293.655731	320.608337	-17.952230	-332.155792	81.170708	-128.797089	-383.167786	74.177475	-184.736221	-174.957977	48.149597	-150.681168	-237.548050	647.012329	-468.432037	-264.301453	529.333130	-420.064667	-311.661346	343.729858	-460.176208	-331.631226	74.255814	-354.055084	-379.165527	81.294365	-294.820892	-173.461716	45.558041	-342.788849
84	0.83000000	-201.429520	1506.265625	-35.582645	-217.105194	1514.701904	-482.236359	-297.591431	1610.936035	-268.468658	-145.800888	1507.620117	-267.202454	-245.647980	1233.685059	109.045639	-245.397049	1233.215820	-632.493896	-176.320045	973.421112	114.562298	-200.552841	978.256744	-660.949219	-134.122543	1052.720459	-128.562897	-136.981171	1034.543945	-368.974915	-352.354675	1084.372925	-253.528763	-381.554688	1392.332520	-261.174988	-87.366226	1277.029785	-269.114288	-207.604309	652.643433	-41.012321	-240.712082	529.473022	-88.430664	-293.620026	320.536743	-17.964621	-332.056641	81.631683	-128.679626	-383.150574	74.176468	-184.757568	-174.970016	48.141365	-150.687851	-237.522842	647.015991	-468.328491	-264.248444	529.334961	-420.072449	-311.698181	343.794159	-460.162415	-331.591736	74.236008	-354.010376	-379.119843	81.254379	-294.764435	-173.419403	45.561996	-342.744751
85	0.84000000	-201.260742	1506.246216	-35.583073	-217.200058	1514.533691	-482.177826	-297.584778	1610.916626	-268.463196	-145.883118	1507.458008	-267.124878	-245.611755	1233.574097	109.029144	-245.474426	1233.162354	-632.430359	-176.160469	973.422028	114.482872	-200.558441	978.163696	-660.896393	-134.052048	1052.713501	-128.538071	-136.877609	1034.554077	-368.954437	-352.268127	1084.377319	-253.461578	-381.648804	1392.330933	-261.089355	-87.338005	1276.953735	-268.996948	-207.553192	652.712585	-41.068192	-240.667969	529.409180	-88.356133	-293.561707	320.490662	-17.869276	-332.045074	81.735535	-128.553986	-383.147552	74.157784	-184.761917	-174.887863	48.231239	-150.733215	-237.422974	647.035645	-468.292206	-264.233398	529.329590	-419.960114	-311.636627	343.775421	-460.105560	-331.578705	74.230873	-354.029419	-379.080231	81.266937	-294.776642	-173.424225	45.558056	-342.746368
86	0.85000000	-201.305832	1506.218140	-35.540154	-217.336044	1514.530273	-482.155457	-297.540710	1610.909912	-268.426666	-145.891052	1507.449097	-267.123566	-245.254318	1233.477783	108.961723	-245.475647	1233.096680	-632.378723	-176.023109	973.391968	114.409439	-200.612785	978.136902	-660.823792	-133.928696	1052.760498	-128.457321	-136.874832	1034.509155	-368.927338	-352.233276	1084.331299	-253.376694	-381.599487	1392.331909	-261.017578	-87.346848	1276.907593	-269.184387	-207.493347	652.624695	-40.961544	-240.608322	529.475220	-88.363495	-293.515808	320.426300	-17.914913	-332.149445	81.705765	-128.593964	-383.173248	74.185020	-184.727478	-174.872192	48.233936	-150.740677	-237.393951	647.015442	-468.311279	-264.068115	529.454956	-419.959015	-311.571686	343.818695	-460.114044	-331.619995	74.191498	-354.002502	-379.072479	81.206757	-294.804596	-173.425781	45.557953	-342.747467
87	0.86000000	-201.285934	1506.136841	-35.549950	-217.428101	1514.496948	-482.126404	-297.629669	1610.928589	-268.337036	-145.822479	1507.330688	-267.080322	-245.124756	1233.450439	108.982277	-245.554611	1233.035889	-632.335022	-175.951851	973.337219	114.369396	-200.674675	978.101898	-660.771698	-133.871384	1052.729980	-128.288406	-136.835159	1034.560669	-368.741455	-352.216492	1084.379883	-253.238190	-381.566498	1392.313599	-260.904144	-87.322853	1276.903809	-268.975555	-207.521637	652.580811	-40.910408	-240.540497	529.456299	-88.303993	-293.503632	320.421967	-17.914425	-332.112823	81.677299	-128.642242	-383.176880	74.222076	-184.723907	-174.951996	48.150452	-150.697250	-237.324112	647.032837	-468.213928	-263.825165	529.588989	-419.898590	-311.497253	343.840698	-460.049591	-331.678375	74.228134	-353.945831	-379.093903	81.256668	-294.759644	-173.431335	45.561558	-342.737274
88	0.87000000	-201.184402	1506.117065	-35.483837	-217.541611	1514.450684	-482.202209	-297.638123	1610.890625	-268.267181	-145.869385	1507.289429	-266.971191	-245.098831	1233.320312	108.922897	-245.654205	1232.974365	-632.226135	-175.834335	973.322723	114.368134	-200.725677	978.001038	-660.723907	-133.889175	1052.689575	-128.243454	-136.831100	1034.566528	-368.721954	-352.117126	1084.378052	-253.072845	-381.522736	1392.325806	-260.792542	-87.322960	1276.840088	-269.032471	-207.393417	652.601562	-40.892216	-240.581207	529.427063	-88.261040	-293.455872	320.461517	-17.825315	-332.130341	81.160034	-128.663986	-383.174133	74.175812	-184.713303	-174.838348	48.235714	-150.687393	-237.292526	647.080750	-468.119385	-263.799622	529.515564	-419.811615	-311.509277	343.789917	-460.005432	-331.561798	74.233139	-353.981384	-379.097107	81.263603	-294.736908	-173.446564	45.578388	-342.730896
89	0.88000000	-201.269699	1506.044556	-35.426994	-217.593216	1514.329224	-481.951294	-297.589752	1610.855225	-268.237457	-145.929993	1507.176758	-266.905731	-245.175247	1233.265625	108.983223	-245.733170	1232.886963	-632.169861	-175.668602	973.243866	114.333313	-200.781166	977.939911	-660.621399	-133.813553	1052.677490	-128.195251	-136.721298	1034.567505	-368.692780	-352.125549	1084.334839	-253.010635	-381.617859	1392.254395	-260.705353	-87.394455	1276.897827	-268.886414	-207.411423	652.604126	-40.884869	-240.509949	529.383789	-88.207825	-293.453949	320.407135	-17.787924	-332.032196	81.581017	-128.566238	-383.171326	74.169960	-184.730545	-174.951584	48.149632	-150.684128	-237.203171	647.045959	-468.041870	-263.939545	529.342346	-419.801788	-311.450592	343.787933	-459.976257	-331.547241	74.230843	-353.988312	-379.098480	81.263344	-294.754333	-173.415436	45.553841	-342.742279
